<svg xmlns="http://www.w3.org/2000/svg" width="100" height="56" viewBox="0 0 100 56" fill="none">
  <path d="M 6.424 16.961 C 6.51 16.843 6.786 16.871 7.192 17.035 C 7.599 17.2 8.102 17.488 8.597 17.829 C 9.402 18.384 10.212 18.928 11.032 19.435 C 11.075 19.459 11.12 19.485 11.164 19.51 C 11.336 19.608 11.505 19.695 11.672 19.776 C 11.822 19.848 11.97 19.914 12.117 19.978 C 12.189 20.008 12.26 20.039 12.332 20.068 C 12.87 20.306 13.872 20.774 14.475 20.991 C 14.485 20.995 14.496 20.999 14.507 21.003 C 14.649 21.056 14.784 21.103 14.942 21.156 C 15.325 21.282 15.836 21.449 16.941 21.793 C 17.263 21.877 17.59 21.962 17.916 22.044 C 18.053 22.079 18.188 22.113 18.328 22.149 C 20.227 22.62 22.136 23.074 24.05 23.512 C 23.986 23.337 23.955 23.155 23.968 22.993 C 23.986 22.8 24.057 22.607 24.208 22.584 C 24.282 22.579 24.341 22.535 24.417 22.54 C 24.492 22.541 24.574 22.563 24.66 22.607 C 24.83 22.692 24.997 22.852 25.123 23.045 C 25.305 23.323 25.488 23.601 25.669 23.878 C 26.642 24.096 27.616 24.31 28.59 24.521 C 28.635 24.529 28.682 24.538 28.728 24.547 C 29.63 24.715 30.749 24.915 31.447 25.067 C 32.333 25.261 32.936 25.397 33.431 25.508 C 33.872 25.592 34.317 25.674 34.757 25.754 C 37.171 26.189 39.595 26.554 42.028 26.825 C 42.933 26.926 43.837 27.013 44.742 27.087 C 45.495 27.148 46.25 27.2 47.003 27.245 C 47.086 27.25 47.166 27.255 47.247 27.259 C 47.735 27.274 48.199 27.282 48.629 27.288 C 49.254 27.305 49.7 27.269 50.314 27.359 C 50.365 27.371 50.426 27.384 50.524 27.431 C 50.632 27.499 50.817 27.549 50.958 27.906 C 51.019 28.082 50.99 28.287 50.945 28.397 C 50.898 28.52 50.844 28.592 50.802 28.646 C 50.621 28.86 50.488 28.936 50.353 29.029 C 50.089 29.2 49.838 29.329 49.593 29.456 C 49.107 29.705 48.65 29.926 48.273 30.129 C 48.146 30.197 48.027 30.262 47.92 30.323 C 47.783 30.408 47.649 30.496 47.52 30.585 C 47.15 30.84 46.818 31.24 46.486 31.662 C 46.451 31.696 46.418 31.728 46.383 31.762 C 46.059 32.079 45.726 32.502 45.295 33.106 C 45.492 32.98 45.681 32.885 45.831 32.822 C 46.278 32.641 46.58 32.568 46.829 32.508 C 48.174 32.114 49.515 31.941 50.868 31.851 C 50.926 31.848 50.984 31.846 51.042 31.845 C 51.54 31.839 52.023 31.94 52.469 32.097 C 52.881 32.242 53.266 32.434 53.629 32.65 C 53.777 32.727 53.919 32.806 54.051 32.882 C 54.133 32.932 54.209 32.987 54.279 33.045 C 54.583 33.3 54.757 33.586 54.87 33.814 C 55.138 34.373 55.223 34.992 55.286 35.428 C 55.293 35.481 55.299 35.531 55.306 35.578 C 55.309 35.6 55.312 35.621 55.314 35.642 C 55.391 36.074 55.353 36.506 55.259 36.899 C 55.247 36.924 55.234 36.948 55.22 36.972 C 55.051 37.275 54.908 37.651 54.596 38.175 C 54.46 38.402 54.291 38.655 54.071 38.931 C 53.93 39.108 53.832 39.177 53.752 39.234 C 53.729 39.25 53.707 39.265 53.686 39.282 C 53.613 39.337 53.567 39.423 53.511 39.523 C 53.437 39.653 53.346 39.808 53.162 39.948 C 52.575 40.39 52.385 40.647 52.24 40.852 C 52.198 40.912 52.159 40.965 52.114 41.014 C 52.021 41.118 51.883 41.228 51.743 41.322 C 51.659 41.38 51.573 41.43 51.494 41.471 C 51.319 41.565 51.002 41.794 50.748 41.951 C 50.653 42.012 50.514 42.074 50.349 42.137 C 50.178 42.202 49.979 42.27 49.767 42.344 C 49.229 42.527 48.932 42.578 48.697 42.625 C 48.629 42.637 48.566 42.648 48.504 42.658 C 48.305 42.691 48.057 42.718 47.806 42.733 C 47.504 42.753 47.198 42.755 46.962 42.756 C 46.794 42.738 46.622 42.716 46.446 42.685 C 46.421 42.682 46.351 42.663 46.327 42.656 C 45.837 42.487 45.474 42.072 45.282 41.741 C 45.227 41.651 45.178 41.562 45.134 41.473 C 44.981 41.169 44.928 40.866 44.948 40.626 C 44.968 40.385 45.06 40.224 45.197 40.168 C 45.335 40.112 45.509 40.168 45.686 40.312 C 45.863 40.456 46.029 40.675 46.16 40.89 C 46.198 40.953 46.238 41.013 46.278 41.068 C 46.414 41.256 46.533 41.358 46.662 41.408 C 46.803 41.422 46.956 41.431 47.107 41.435 C 47.766 41.453 48.43 41.402 49.061 41.277 C 49.502 41.189 49.929 41.059 50.319 40.874 C 50.359 40.855 50.399 40.835 50.438 40.815 C 50.46 40.8 50.481 40.785 50.502 40.77 C 50.057 40.781 49.613 40.777 49.166 40.753 C 49.141 40.754 49.116 40.754 49.09 40.754 C 48.902 40.755 48.724 40.775 48.544 40.792 C 48.503 40.796 48.461 40.799 48.42 40.802 C 48.103 40.83 47.511 40.689 47.185 40.586 C 47.179 40.584 47.172 40.583 47.166 40.581 C 47.089 40.557 47.015 40.537 46.928 40.511 C 46.721 40.443 46.441 40.382 45.859 40.058 C 45.759 40.01 45.658 39.956 45.559 39.897 C 45.471 39.844 45.386 39.787 45.307 39.725 C 44.078 38.668 43.961 37.345 43.756 36.25 C 43.692 35.931 43.713 35.607 43.78 35.302 C 43.526 35.674 43.373 35.85 43.247 35.995 C 43.209 36.038 43.174 36.079 43.139 36.121 C 43.023 36.261 42.93 36.439 42.825 36.642 C 42.685 36.911 42.522 37.227 42.233 37.604 C 41.316 38.8 41.013 39.399 40.784 39.85 C 40.717 39.982 40.656 40.102 40.588 40.221 C 40.367 40.607 39.998 41.12 39.705 41.499 C 39.473 41.799 39.08 42.448 38.792 42.948 C 38.685 43.135 38.523 43.379 38.333 43.666 C 38.341 43.68 38.351 43.694 38.36 43.708 C 38.43 43.825 38.513 43.963 38.612 44.099 C 38.863 44.446 38.998 44.638 39.101 44.785 C 39.132 44.829 39.16 44.87 39.188 44.909 C 39.275 45.033 39.383 45.197 39.487 45.357 C 39.614 45.552 39.742 45.751 39.845 45.898 C 40.058 46.311 40.264 46.736 40.461 47.139 C 40.514 47.247 40.557 47.364 40.557 47.424 C 40.561 47.429 40.571 47.444 40.575 47.449 C 40.615 47.568 40.652 47.719 40.645 47.868 C 40.631 48.212 40.412 48.325 40.279 48.281 C 40.138 48.241 40.01 48.132 39.884 48.119 C 39.827 48.106 39.771 48.087 39.701 48.037 L 39.715 48.058 C 39.591 47.944 39.513 47.846 39.441 47.732 C 39.184 47.318 38.941 46.921 38.69 46.517 C 38.388 46.029 38.084 45.536 37.791 45.04 C 37.735 44.946 37.681 44.852 37.625 44.758 C 37.238 45.379 36.969 45.805 36.757 46.136 C 36.656 46.294 36.571 46.426 36.489 46.553 C 36.414 46.67 36.347 46.773 36.276 46.882 C 36.057 47.22 35.779 47.636 35.492 48.055 C 35.149 48.558 34.798 49.061 34.531 49.449 C 33.792 50.414 33.027 51.361 32.226 52.283 C 32.121 52.404 32.014 52.52 31.907 52.631 C 31.595 52.953 31.279 53.23 30.997 53.42 C 30.613 53.678 30.355 53.745 30.243 53.649 C 30.129 53.55 30.2 53.262 30.407 52.871 C 30.561 52.578 30.784 52.231 31.048 51.875 C 31.138 51.753 31.233 51.63 31.331 51.508 C 32.106 50.546 32.842 49.557 33.566 48.548 C 34.305 47.516 35.025 46.471 35.743 45.417 C 35.877 45.22 36.013 45.019 36.148 44.821 C 36.41 44.434 36.672 44.045 36.934 43.656 C 36.793 43.487 36.66 43.326 36.562 43.199 C 36.442 43.043 36.376 42.915 36.319 42.803 C 36.279 42.725 36.246 42.661 36.201 42.599 C 36.177 42.566 36.142 42.521 36.101 42.468 C 35.936 42.251 35.652 41.881 35.435 41.512 C 35.338 41.348 35.238 41.151 35.14 40.963 C 35.001 40.693 34.872 40.442 34.78 40.334 C 34.62 40.145 34.469 39.902 34.337 39.687 C 34.211 39.483 34.101 39.304 34.012 39.222 C 33.905 39.122 33.845 39.017 33.755 38.858 C 33.692 38.747 33.617 38.615 33.5 38.439 C 33.368 38.239 33.285 38.085 33.216 37.957 C 33.119 37.775 33.046 37.638 32.887 37.471 C 32.71 37.285 32.538 37.08 32.428 36.901 C 32.378 36.82 32.314 36.73 32.249 36.638 C 32.162 36.516 32.07 36.386 31.999 36.259 C 31.941 36.155 31.908 36.057 31.879 35.971 C 31.87 35.944 31.862 35.918 31.853 35.893 C 31.799 35.815 31.745 35.737 31.691 35.659 C 31.678 35.649 31.665 35.639 31.651 35.628 C 31.581 35.574 31.496 35.507 31.41 35.41 C 31.274 35.256 31.187 35.099 31.095 34.933 C 31.024 34.803 30.949 34.669 30.847 34.526 C 30.778 34.428 30.693 34.322 30.608 34.217 C 30.482 34.06 30.359 33.904 30.292 33.783 C 30.279 33.761 30.27 33.737 30.264 33.714 L 30.248 33.643 C 30.247 33.64 30.247 33.637 30.246 33.634 C 30.23 33.612 30.214 33.589 30.198 33.567 C 30.017 33.316 29.838 33.067 29.658 32.817 C 29.638 32.795 29.619 32.773 29.599 32.751 C 29.504 32.644 29.411 32.54 29.337 32.481 C 29.256 32.417 29.108 32.221 28.952 32.014 C 28.85 31.878 28.745 31.737 28.653 31.626 C 28.6 31.561 28.573 31.484 28.545 31.404 C 28.52 31.33 28.494 31.254 28.445 31.183 C 28.42 31.148 28.389 31.113 28.356 31.076 C 28.327 31.043 28.296 31.008 28.267 30.97 C 28.239 30.935 28.195 30.844 28.139 30.729 C 28.104 30.658 28.064 30.577 28.021 30.492 C 27.881 30.288 27.741 30.082 27.602 29.875 C 27.562 29.839 27.52 29.812 27.479 29.796 C 27.449 29.785 27.418 29.779 27.386 29.773 C 27.343 29.764 27.298 29.755 27.253 29.732 C 27.217 29.714 27.189 29.684 27.182 29.656 C 27.18 29.644 27.181 29.631 27.183 29.62 C 27.184 29.607 27.185 29.596 27.18 29.587 C 27.176 29.58 27.166 29.577 27.155 29.572 C 27.138 29.564 27.115 29.553 27.098 29.526 C 27.035 29.426 26.969 29.308 26.906 29.194 C 26.833 29.064 26.765 28.94 26.702 28.844 C 26.632 28.736 26.557 28.57 26.482 28.402 C 26.43 28.287 26.376 28.167 26.326 28.071 C 26.277 27.977 26.209 27.885 26.145 27.799 C 26.069 27.696 25.993 27.592 25.956 27.493 C 25.949 27.473 25.954 27.438 25.961 27.394 C 25.966 27.363 25.972 27.327 25.975 27.29 C 25.907 27.174 25.839 27.056 25.774 26.939 C 25.769 26.937 25.763 26.935 25.758 26.932 L 25.664 26.882 C 25.567 26.825 25.467 26.74 25.424 26.578 C 25.41 26.524 25.416 26.48 25.422 26.441 C 25.429 26.404 25.434 26.368 25.418 26.331 C 25.4 26.289 25.361 26.251 25.318 26.21 C 25.259 26.153 25.19 26.085 25.166 25.996 C 25.165 25.99 25.163 25.983 25.162 25.976 C 25.143 25.91 25.115 25.812 25.112 25.704 C 25.034 25.552 24.959 25.4 24.883 25.248 C 24.83 25.254 24.781 25.263 24.731 25.272 C 24.648 25.289 24.561 25.305 24.446 25.308 C 24.355 25.311 24.252 25.298 24.186 25.275 C 24.155 25.264 24.133 25.251 24.112 25.24 C 24.089 25.227 24.067 25.215 24.04 25.21 C 24.02 25.206 23.998 25.206 23.971 25.208 C 23.928 25.21 23.872 25.213 23.792 25.196 C 23.493 25.134 23.154 25.056 22.822 24.979 C 22.454 24.894 22.093 24.809 21.804 24.749 C 21.481 24.682 21.026 24.558 20.571 24.431 C 20.252 24.343 19.934 24.254 19.661 24.184 C 19.391 24.114 19.108 24.059 18.834 24.005 C 18.507 23.94 18.19 23.875 17.933 23.793 C 17.93 23.792 17.928 23.791 17.926 23.791 C 17.871 23.773 17.809 23.734 17.732 23.685 C 17.677 23.65 17.617 23.611 17.542 23.57 C 17.203 23.484 16.862 23.394 16.525 23.302 C 16.512 23.302 16.499 23.302 16.485 23.302 C 16.189 23.297 15.78 23.29 15.257 23.073 C 15.123 23.018 15.048 22.966 14.976 22.918 C 14.906 22.87 14.848 22.83 14.748 22.793 C 14.637 22.753 14.497 22.724 14.349 22.693 C 14.136 22.647 13.901 22.593 13.68 22.487 C 13.666 22.479 13.649 22.471 13.632 22.463 C 13.473 22.387 13.235 22.269 13.012 22.121 C 12.3 21.812 11.606 21.423 10.969 21.006 C 10.961 21.001 10.954 20.996 10.946 20.991 C 9.89 20.303 8.895 19.556 7.912 18.801 C 7.432 18.43 7.006 18.028 6.727 17.684 C 6.448 17.339 6.339 17.081 6.424 16.961 Z M 48.824 33.064 C 48.437 33.156 48.054 33.262 47.681 33.386 C 47.65 33.4 47.618 33.414 47.587 33.428 C 47.434 33.497 47.289 33.568 47.201 33.63 C 47.105 33.699 46.848 33.81 46.596 33.947 C 46.431 34.035 46.268 34.135 46.151 34.225 C 46.082 34.279 46.005 34.306 45.929 34.336 C 45.857 34.364 45.785 34.395 45.727 34.45 C 45.699 34.478 45.672 34.513 45.647 34.548 C 45.626 34.58 45.604 34.614 45.584 34.645 C 45.564 34.674 45.507 34.728 45.457 34.793 L 45.457 34.794 C 45.404 34.874 45.348 34.959 45.297 35.046 C 45.187 35.29 45.132 35.495 45.13 35.684 C 45.143 35.725 45.164 35.759 45.192 35.784 C 45.212 35.802 45.236 35.817 45.261 35.831 C 45.294 35.849 45.33 35.867 45.36 35.891 C 45.376 35.905 45.387 35.92 45.391 35.935 C 45.394 35.947 45.395 35.959 45.394 35.969 C 45.393 35.984 45.387 35.997 45.383 36.008 C 45.377 36.021 45.372 36.034 45.375 36.046 C 45.377 36.055 45.384 36.064 45.393 36.074 C 45.407 36.09 45.425 36.112 45.433 36.148 C 45.462 36.284 45.489 36.437 45.518 36.583 C 45.551 36.745 45.586 36.9 45.625 37.017 C 45.668 37.149 45.706 37.34 45.756 37.519 C 45.791 37.644 45.831 37.764 45.874 37.858 C 45.916 37.95 45.979 38.03 46.041 38.097 C 46.115 38.178 46.186 38.239 46.228 38.304 C 46.237 38.318 46.235 38.347 46.235 38.385 C 46.235 38.411 46.236 38.442 46.242 38.473 C 46.275 38.499 46.309 38.522 46.344 38.543 C 46.404 38.579 46.47 38.616 46.539 38.651 C 46.544 38.65 46.55 38.65 46.556 38.649 C 46.686 38.631 46.857 38.598 47.048 38.727 C 47.097 38.76 47.124 38.798 47.148 38.832 C 47.171 38.866 47.193 38.895 47.233 38.912 C 47.279 38.932 47.339 38.934 47.404 38.935 C 47.497 38.937 47.6 38.937 47.693 38.984 C 47.699 38.987 47.706 38.99 47.713 38.994 C 47.781 39.027 47.883 39.076 47.982 39.148 C 48.3 39.227 48.627 39.295 48.957 39.354 C 49.508 39.452 50.07 39.526 50.63 39.572 C 50.904 39.595 51.164 39.662 51.361 39.766 C 51.435 39.805 51.498 39.848 51.548 39.895 C 51.577 39.874 51.604 39.854 51.63 39.836 C 51.712 39.777 51.785 39.724 51.849 39.662 C 51.884 39.629 51.931 39.582 51.986 39.525 C 52.213 39.294 52.585 38.891 52.927 38.538 C 53.08 38.381 53.26 38.202 53.423 38.024 C 53.656 37.771 53.849 37.515 53.91 37.369 C 54.021 37.114 54.155 36.838 54.235 36.587 C 54.312 36.35 54.337 36.141 54.31 36.027 C 54.289 35.937 54.281 35.86 54.272 35.77 C 54.264 35.708 54.257 35.641 54.25 35.567 C 54.234 35.416 54.215 35.23 54.165 34.992 C 54.106 34.718 54.067 34.531 54.027 34.377 C 53.969 34.164 53.909 34.001 53.75 33.855 C 53.673 33.786 53.594 33.731 53.517 33.69 C 53.374 33.607 53.239 33.527 53.126 33.451 C 53.035 33.39 52.927 33.328 52.812 33.27 C 52.66 33.192 52.499 33.119 52.355 33.046 C 52.237 32.986 52.144 32.923 52.059 32.869 C 52.032 32.853 52.007 32.837 51.981 32.822 C 51.88 32.794 51.777 32.77 51.675 32.751 C 51.658 32.753 51.64 32.754 51.621 32.757 C 51.525 32.767 51.411 32.784 51.276 32.793 C 51.156 32.801 51.047 32.804 50.939 32.808 C 50.844 32.811 50.746 32.812 50.649 32.814 C 50.473 32.817 50.292 32.822 50.085 32.853 C 49.945 32.874 49.785 32.908 49.629 32.944 C 49.395 32.997 49.168 33.055 49.006 33.074 C 48.945 33.081 48.89 33.074 48.836 33.066 L 48.835 33.066 C 48.831 33.065 48.827 33.065 48.824 33.064 Z M 26.8 25.534 C 26.871 25.664 26.965 25.845 27.103 26.149 C 27.17 26.261 27.237 26.374 27.303 26.486 C 28.014 27.703 28.691 28.94 29.376 30.172 C 29.386 30.187 29.395 30.203 29.405 30.218 C 29.597 30.513 29.839 30.88 29.965 31.125 C 30.125 31.438 30.228 31.655 30.311 31.833 C 30.539 32.229 30.769 32.624 31.004 33.016 C 31.345 33.585 31.696 34.148 32.059 34.704 C 32.251 34.998 32.447 35.289 32.646 35.578 C 32.83 35.845 33.016 36.109 33.204 36.373 C 33.324 36.518 33.441 36.655 33.55 36.781 C 33.703 36.959 33.839 37.116 33.943 37.253 C 34.194 37.581 34.444 37.981 34.629 38.277 C 34.66 38.325 34.688 38.371 34.715 38.413 C 34.882 38.633 35.051 38.853 35.219 39.073 C 35.225 39.091 35.231 39.11 35.237 39.129 C 35.312 39.369 35.48 39.604 35.747 39.977 C 35.862 40.138 35.996 40.326 36.15 40.553 C 36.248 40.697 36.276 40.79 36.298 40.865 C 36.304 40.887 36.311 40.908 36.318 40.927 C 36.343 40.996 36.402 41.044 36.473 41.102 C 36.565 41.177 36.674 41.265 36.751 41.434 C 36.994 41.968 37.198 42.133 37.354 42.258 C 37.399 42.294 37.44 42.327 37.477 42.366 C 37.535 42.427 37.593 42.51 37.645 42.598 C 37.738 42.459 37.833 42.319 37.926 42.18 C 37.987 42.088 38.048 41.998 38.109 41.907 C 38.571 41.141 39.033 40.377 39.368 39.845 C 39.644 39.406 39.868 39.1 40.059 38.839 C 40.191 38.658 40.307 38.5 40.416 38.332 C 40.475 38.241 40.552 38.119 40.647 37.968 C 41.034 37.359 41.691 36.324 42.341 35.411 C 42.629 35.006 42.976 34.543 43.31 34.103 C 43.413 33.968 43.52 33.827 43.617 33.701 C 43.975 33.231 44.286 32.825 44.447 32.581 C 44.808 32.034 45.264 31.434 45.704 30.917 C 46.118 30.424 46.554 30.003 46.841 29.774 C 46.874 29.747 46.908 29.72 46.941 29.695 C 47.217 29.486 47.491 29.335 47.877 29.139 C 48.175 28.987 48.543 28.813 49.023 28.569 C 49.239 28.458 49.429 28.36 49.591 28.272 C 49.417 28.263 49.231 28.258 49.019 28.26 C 48.36 28.265 47.668 28.25 47.127 28.203 C 47.069 28.199 47.008 28.194 46.944 28.189 C 46.748 28.175 46.524 28.161 46.303 28.147 C 45.913 28.122 45.503 28.094 45.13 28.051 C 44.824 28.016 44.571 27.966 44.348 27.921 C 44.279 27.908 44.212 27.894 44.147 27.882 C 43.903 27.861 43.658 27.84 43.411 27.818 C 43.372 27.819 43.33 27.821 43.286 27.822 C 43.064 27.829 42.792 27.836 42.459 27.819 C 41.931 27.793 41.471 27.727 40.987 27.656 C 40.608 27.6 40.218 27.541 39.766 27.491 C 39.458 27.457 39.104 27.425 38.758 27.392 C 38.241 27.343 37.728 27.29 37.379 27.23 C 37.247 27.207 37.134 27.173 37.025 27.139 L 37.024 27.138 C 37.017 27.136 37.009 27.133 37.001 27.131 C 36.199 27.029 35.396 26.921 34.594 26.807 C 34.536 26.799 34.478 26.791 34.421 26.782 C 34.346 26.775 34.27 26.768 34.195 26.76 C 33.828 26.722 33.471 26.684 33.237 26.676 C 32.981 26.666 32.353 26.578 31.69 26.48 C 31.256 26.416 30.807 26.347 30.441 26.298 C 30.226 26.27 30.028 26.214 29.824 26.155 C 29.633 26.101 29.438 26.045 29.22 26.008 C 29.111 25.99 28.992 25.975 28.865 25.959 C 28.753 25.945 28.635 25.93 28.513 25.911 C 28.398 25.893 28.147 25.834 27.826 25.758 C 27.627 25.71 27.402 25.656 27.165 25.601 C 27.043 25.579 26.922 25.556 26.8 25.534 Z" fill="currentColor" fill-rule="evenodd"></path>
  <path d="M 73.64 0.255 C 73.789 0.066 73.95 -0.024 74.092 0.005 C 74.234 0.035 74.348 0.181 74.413 0.413 C 74.479 0.646 74.489 0.946 74.446 1.246 C 74.375 1.737 74.305 2.228 74.234 2.717 C 74.232 2.743 74.23 2.769 74.228 2.795 C 74.211 2.988 74.218 3.172 74.225 3.355 C 74.226 3.397 74.228 3.44 74.229 3.482 C 74.238 3.803 74.098 4.391 74.023 4.714 C 74.022 4.72 74.021 4.726 74.02 4.732 C 74.002 4.808 73.987 4.881 73.971 4.967 C 73.951 5.067 73.929 5.186 73.893 5.347 C 73.857 5.513 73.807 5.727 73.734 6.017 C 73.706 6.187 73.676 6.357 73.646 6.528 C 73.321 8.374 72.868 10.187 72.395 11.983 C 72.391 12.006 72.385 12.03 72.38 12.053 C 72.352 12.191 72.322 12.336 72.289 12.488 C 72.215 12.827 72.134 13.18 72.06 13.423 C 71.926 13.865 71.826 14.166 71.743 14.407 C 71.725 14.476 71.706 14.544 71.688 14.613 C 71.764 14.799 71.842 14.984 71.919 15.17 C 71.929 15.191 71.939 15.212 71.95 15.234 C 72.147 15.648 72.393 16.16 72.521 16.495 C 72.683 16.921 72.786 17.214 72.87 17.455 C 73.422 18.766 73.985 20.074 74.577 21.366 C 75.022 21.384 75.1 21.631 75.072 21.759 C 75.053 21.856 74.958 21.934 74.877 22.015 C 74.983 22.241 75.09 22.466 75.197 22.69 C 75.379 23.07 75.562 23.445 75.749 23.821 C 75.868 24.035 75.985 24.235 76.094 24.422 C 76.246 24.681 76.384 24.917 76.487 25.113 C 76.551 25.236 76.615 25.364 76.676 25.491 C 76.858 25.868 77.025 26.248 77.162 26.557 C 77.192 26.625 77.22 26.688 77.246 26.746 C 77.415 27.066 77.582 27.377 77.753 27.694 C 77.759 27.718 77.764 27.742 77.769 27.767 C 77.838 28.075 78.008 28.41 78.279 28.934 C 78.398 29.165 78.534 29.427 78.691 29.742 C 78.792 29.942 78.82 30.063 78.842 30.158 C 78.848 30.186 78.854 30.212 78.861 30.238 C 78.887 30.329 78.95 30.404 79.024 30.491 C 79.121 30.607 79.236 30.743 79.315 30.965 C 79.569 31.673 79.789 31.923 79.956 32.113 C 80.005 32.169 80.049 32.219 80.089 32.274 C 80.216 32.452 80.342 32.739 80.424 32.963 C 80.488 33.14 80.692 33.454 80.86 33.685 C 80.923 33.773 80.993 33.9 81.075 34.051 C 81.125 34.142 81.18 34.242 81.239 34.346 C 81.282 34.421 81.326 34.495 81.375 34.574 C 81.671 35.045 81.824 35.299 81.947 35.503 C 81.982 35.562 82.014 35.615 82.047 35.67 C 82.15 35.842 82.272 36.058 82.394 36.277 C 82.54 36.539 82.686 36.807 82.804 37.009 C 83.001 37.45 83.191 37.894 83.373 38.345 C 83.418 38.458 83.463 38.572 83.507 38.683 C 83.623 38.977 83.658 39.223 83.657 39.406 C 83.662 39.602 83.652 39.793 83.544 39.896 C 83.437 39.997 83.249 40.025 83.008 39.882 C 82.76 39.729 82.564 39.437 82.434 39.17 C 82.382 39.063 82.331 38.957 82.278 38.852 C 82.062 38.414 81.835 37.976 81.607 37.541 C 81.262 36.883 80.91 36.228 80.563 35.57 C 80.448 35.352 80.332 35.134 80.217 34.916 C 80.088 34.674 79.959 34.43 79.829 34.187 C 79.804 34.14 79.779 34.092 79.754 34.044 C 79.511 33.676 79.269 33.305 79.11 33.038 C 78.98 32.819 78.907 32.643 78.845 32.494 C 78.803 32.392 78.764 32.299 78.717 32.214 C 78.691 32.169 78.653 32.104 78.61 32.029 C 78.432 31.721 78.129 31.193 77.903 30.685 C 77.804 30.461 77.697 30.19 77.6 29.937 C 77.458 29.57 77.329 29.23 77.234 29.071 C 77.07 28.796 76.916 28.454 76.786 28.158 C 76.659 27.873 76.549 27.621 76.459 27.497 C 76.351 27.345 76.291 27.198 76.203 26.98 C 76.141 26.826 76.069 26.646 75.953 26.396 C 75.874 26.226 75.814 26.081 75.763 25.953 C 75.731 25.872 75.703 25.798 75.677 25.728 C 75.582 25.477 75.514 25.293 75.353 25.039 C 75.176 24.762 75.004 24.461 74.896 24.212 C 74.847 24.096 74.785 23.972 74.72 23.839 C 74.634 23.664 74.544 23.482 74.475 23.307 C 74.418 23.162 74.389 23.035 74.363 22.922 C 74.355 22.887 74.347 22.853 74.339 22.821 C 74.327 22.796 74.315 22.771 74.303 22.746 C 74.295 22.754 74.288 22.762 74.279 22.77 C 73.739 23.266 73.189 23.714 72.633 24.158 C 72.117 24.569 71.596 24.97 71.065 25.365 C 70.904 25.485 70.737 25.606 70.57 25.726 C 70.08 26.078 69.586 26.422 69.09 26.763 C 69.038 26.798 68.988 26.832 68.937 26.867 C 68.809 26.971 68.681 27.074 68.557 27.174 C 68.511 27.36 68.46 27.565 68.4 27.793 C 68.341 28.015 68.283 28.121 68.236 28.21 C 68.222 28.236 68.209 28.26 68.197 28.284 C 68.171 28.339 68.16 28.4 68.155 28.467 C 68.151 28.505 68.15 28.545 68.148 28.586 C 68.142 28.74 68.136 28.922 68.046 29.144 C 67.758 29.843 67.746 30.188 67.739 30.446 C 67.736 30.522 67.734 30.589 67.726 30.657 C 67.696 30.883 67.593 31.176 67.498 31.402 C 67.423 31.578 67.355 31.95 67.317 32.239 C 67.302 32.35 67.265 32.491 67.221 32.658 C 67.175 32.833 67.123 33.032 67.08 33.251 C 66.971 33.805 66.91 34.096 66.861 34.331 C 66.847 34.398 66.834 34.46 66.821 34.522 C 66.793 34.66 66.757 34.822 66.721 34.987 C 66.706 35.057 66.691 35.127 66.676 35.197 C 66.615 35.486 66.558 35.78 66.524 36.006 C 66.404 36.431 66.367 36.739 66.146 37.342 C 65.885 38.004 65.079 37.925 64.899 37.236 C 64.858 37.018 64.869 36.943 64.866 36.829 C 64.867 36.723 64.871 36.623 64.877 36.524 C 64.886 36.365 64.913 36.212 64.952 36.072 C 64.953 36.058 64.959 36.02 64.961 36.007 C 65.035 35.8 65.125 35.69 65.208 35.603 C 65.236 35.576 65.265 35.55 65.293 35.527 C 65.353 35.235 65.417 34.941 65.488 34.65 C 65.592 34.225 65.702 33.816 65.814 33.403 C 65.953 32.894 66.093 32.382 66.233 31.872 C 66.247 31.82 66.262 31.766 66.277 31.712 C 66.354 31.275 66.432 30.834 66.498 30.528 C 66.554 30.272 66.619 30.095 66.674 29.944 C 66.712 29.841 66.748 29.743 66.77 29.649 C 66.782 29.598 66.797 29.527 66.816 29.44 C 66.882 29.143 66.986 28.665 67.119 28.201 C 67.121 28.197 67.122 28.192 67.123 28.188 C 67.077 28.216 67.034 28.244 66.992 28.275 C 66.943 28.31 66.876 28.36 66.796 28.419 C 66.471 28.662 65.919 29.076 65.389 29.412 C 65.153 29.561 64.872 29.725 64.605 29.882 C 64.225 30.105 63.869 30.319 63.71 30.452 C 63.43 30.688 63.087 30.924 62.785 31.137 C 62.496 31.339 62.246 31.519 62.126 31.647 C 61.981 31.801 61.835 31.903 61.622 32.055 C 61.481 32.157 61.311 32.281 61.1 32.455 C 61.087 32.467 61.073 32.478 61.059 32.49 C 60.786 32.719 60.586 32.869 60.414 32.998 C 60.174 33.179 59.994 33.315 59.767 33.57 C 59.517 33.851 59.25 34.136 59.022 34.34 C 58.919 34.432 58.805 34.546 58.691 34.662 C 58.538 34.818 58.378 34.985 58.228 35.126 C 58.101 35.246 57.987 35.329 57.886 35.406 C 57.854 35.43 57.824 35.454 57.796 35.476 C 57.708 35.581 57.624 35.684 57.543 35.791 C 57.534 35.811 57.524 35.832 57.515 35.853 C 57.464 35.965 57.408 36.099 57.337 36.249 C 57.23 36.472 57.154 36.654 57.146 36.748 C 57.146 36.768 57.147 36.788 57.146 36.809 C 57.146 36.824 57.145 36.849 57.141 36.882 C 57.14 36.891 57.138 36.9 57.136 36.912 C 57.131 36.938 57.127 36.976 57.088 37.055 C 57.067 37.093 57.034 37.149 56.959 37.206 C 56.888 37.263 56.759 37.307 56.649 37.293 C 56.426 37.257 56.377 37.155 56.341 37.119 C 56.274 37.022 56.295 37.043 56.282 37.02 C 56.276 37.005 56.272 36.993 56.268 36.982 C 56.259 36.957 56.259 36.953 56.255 36.94 C 56.241 36.889 56.236 36.865 56.229 36.83 C 56.225 36.811 56.223 36.792 56.219 36.774 C 56.219 36.779 56.218 36.783 56.217 36.787 C 56.216 36.803 56.217 36.808 56.217 36.809 C 56.217 36.808 56.217 36.804 56.217 36.799 C 56.217 36.787 56.217 36.775 56.217 36.763 C 56.21 36.723 56.202 36.684 56.196 36.647 C 56.175 36.526 56.152 36.401 56.125 36.273 C 56.088 36.096 56.039 35.897 55.992 35.698 C 55.923 35.405 55.858 35.115 55.835 34.908 C 55.827 34.833 55.834 34.764 55.841 34.695 L 55.841 34.693 C 55.841 34.689 55.842 34.684 55.842 34.68 C 55.749 34.189 55.658 33.694 55.569 33.201 C 55.558 33.158 55.548 33.115 55.537 33.072 C 55.484 32.868 55.434 32.665 55.385 32.535 C 55.331 32.395 55.261 32.035 55.189 31.655 C 55.176 31.587 55.163 31.519 55.15 31.45 C 55.115 31.266 55.081 31.085 55.049 30.929 C 55.023 30.804 55.027 30.682 55.033 30.557 C 55.038 30.441 55.043 30.32 55.026 30.191 C 55.017 30.127 55.003 30.058 54.987 29.985 C 54.974 29.92 54.96 29.852 54.949 29.781 C 54.938 29.714 54.935 29.564 54.931 29.373 C 54.929 29.255 54.927 29.121 54.922 28.982 C 54.878 28.616 54.833 28.252 54.786 27.888 C 54.769 27.837 54.75 27.789 54.728 27.747 C 54.72 27.731 54.711 27.715 54.702 27.701 C 54.679 27.666 54.652 27.636 54.625 27.606 C 54.588 27.565 54.55 27.523 54.517 27.462 C 54.491 27.415 54.476 27.358 54.48 27.317 C 54.482 27.298 54.488 27.283 54.493 27.269 C 54.5 27.254 54.505 27.24 54.503 27.224 C 54.502 27.213 54.495 27.201 54.487 27.187 C 54.474 27.165 54.456 27.135 54.45 27.089 C 54.429 26.915 54.412 26.718 54.394 26.524 C 54.374 26.308 54.354 26.098 54.33 25.931 C 54.303 25.743 54.291 25.473 54.279 25.202 C 54.271 25.013 54.262 24.824 54.248 24.662 C 54.235 24.504 54.203 24.341 54.172 24.184 C 54.135 23.995 54.099 23.813 54.097 23.655 C 54.097 23.623 54.114 23.581 54.136 23.528 C 54.151 23.491 54.169 23.448 54.184 23.399 C 54.159 23.201 54.134 23.002 54.11 22.803 C 54.106 22.797 54.102 22.79 54.098 22.783 C 54.006 22.63 53.88 22.419 53.896 22.098 C 53.901 22.017 53.922 21.963 53.94 21.915 C 53.958 21.867 53.975 21.824 53.971 21.766 C 53.968 21.699 53.943 21.623 53.915 21.541 C 53.907 21.514 53.897 21.486 53.889 21.458 C 53.86 21.364 53.835 21.264 53.84 21.159 C 53.84 21.149 53.841 21.139 53.841 21.129 C 53.843 21.089 53.845 21.042 53.848 20.99 C 53.801 21.013 53.752 21.038 53.703 21.063 C 53.566 21.132 53.433 21.2 53.33 21.226 C 53.292 21.235 53.254 21.229 53.217 21.224 C 53.215 21.223 53.212 21.223 53.209 21.222 C 52.977 21.322 52.742 21.423 52.509 21.524 C 52.49 21.536 52.47 21.548 52.451 21.559 C 52.356 21.617 52.264 21.672 52.21 21.724 C 52.152 21.78 51.981 21.861 51.802 21.944 C 51.684 21.999 51.564 22.055 51.465 22.108 C 51.408 22.138 51.345 22.14 51.281 22.14 C 51.22 22.142 51.157 22.143 51.096 22.168 C 51.066 22.181 51.035 22.199 51.002 22.219 C 50.997 22.222 50.992 22.225 50.986 22.228 C 50.962 22.243 50.936 22.257 50.909 22.27 C 50.877 22.285 50.802 22.299 50.708 22.316 C 50.649 22.327 50.584 22.338 50.512 22.353 C 50.336 22.423 50.163 22.491 49.986 22.559 C 49.954 22.587 49.929 22.618 49.912 22.652 C 49.9 22.677 49.891 22.704 49.882 22.732 C 49.87 22.771 49.857 22.811 49.834 22.847 C 49.815 22.875 49.789 22.892 49.767 22.89 C 49.757 22.889 49.747 22.884 49.739 22.879 C 49.73 22.874 49.721 22.869 49.713 22.872 C 49.708 22.874 49.703 22.881 49.698 22.89 C 49.69 22.904 49.679 22.923 49.657 22.93 C 49.575 22.959 49.474 22.986 49.378 23.012 C 49.272 23.041 49.168 23.068 49.086 23.099 C 48.995 23.133 48.86 23.153 48.721 23.175 C 48.625 23.19 48.531 23.204 48.449 23.224 C 48.369 23.243 48.294 23.278 48.219 23.313 C 48.128 23.356 48.042 23.396 47.962 23.402 C 47.945 23.403 47.919 23.387 47.886 23.367 C 47.863 23.353 47.837 23.337 47.809 23.324 C 47.712 23.354 47.614 23.382 47.515 23.411 C 47.513 23.415 47.51 23.419 47.508 23.423 C 47.45 23.517 47.364 23.646 47.196 23.635 C 47.154 23.632 47.12 23.614 47.091 23.596 C 47.062 23.58 47.036 23.565 47.006 23.569 C 46.972 23.573 46.938 23.599 46.902 23.627 C 46.848 23.667 46.789 23.711 46.718 23.708 C 46.713 23.707 46.708 23.707 46.702 23.707 C 46.651 23.705 46.57 23.702 46.488 23.673 C 46.274 23.722 46.062 23.767 45.848 23.81 C 45.488 23.882 45.131 23.946 44.769 24.007 C 44.593 24.036 44.41 24.009 44.263 23.931 C 44.115 23.853 44.016 23.729 43.985 23.585 C 43.952 23.441 43.988 23.287 44.08 23.15 C 44.173 23.014 44.316 22.907 44.479 22.848 C 44.742 22.753 45.007 22.653 45.273 22.553 C 45.287 22.546 45.301 22.539 45.314 22.533 C 45.413 22.484 45.501 22.415 45.589 22.347 C 45.609 22.331 45.629 22.315 45.649 22.3 C 45.803 22.182 46.141 22.113 46.328 22.074 C 46.331 22.073 46.335 22.073 46.338 22.072 C 46.382 22.063 46.426 22.05 46.473 22.037 C 46.586 22.006 46.744 21.962 47.079 21.907 C 47.174 21.877 47.267 21.847 47.361 21.818 C 48.378 21.505 49.408 21.237 50.443 20.972 C 50.456 20.968 50.469 20.963 50.483 20.959 C 50.512 20.948 50.543 20.937 50.574 20.926 C 50.802 20.845 51.066 20.75 51.245 20.713 C 51.505 20.659 51.682 20.629 51.83 20.605 C 52.492 20.42 53.152 20.221 53.806 20.003 C 53.788 19.822 53.77 19.641 53.752 19.459 C 53.682 18.751 53.613 18.042 53.543 17.333 C 53.509 16.988 53.529 16.649 53.601 16.39 C 53.674 16.131 53.793 15.974 53.936 15.952 C 54.08 15.931 54.238 16.046 54.382 16.272 C 54.525 16.499 54.64 16.818 54.706 17.159 C 54.812 17.715 54.918 18.271 55.02 18.829 C 55.027 18.858 55.034 18.887 55.041 18.916 C 55.089 19.119 55.153 19.306 55.217 19.491 C 55.374 19.43 55.531 19.37 55.686 19.306 C 55.813 19.24 55.934 19.174 56.045 19.113 C 56.201 19.026 56.34 18.949 56.459 18.895 C 56.744 18.765 57.083 18.66 57.336 18.581 C 57.377 18.568 57.416 18.556 57.452 18.544 C 57.644 18.458 57.835 18.371 58.025 18.284 C 58.04 18.284 58.056 18.285 58.071 18.285 C 58.267 18.291 58.47 18.209 58.791 18.079 C 58.93 18.023 59.094 17.957 59.285 17.886 C 59.411 17.84 59.485 17.844 59.545 17.847 C 59.563 17.848 59.579 17.849 59.596 17.848 C 59.653 17.846 59.698 17.805 59.751 17.758 C 59.818 17.697 59.902 17.622 60.04 17.603 C 60.333 17.564 60.5 17.489 60.609 17.413 L 60.601 17.416 C 60.659 17.375 60.702 17.334 60.74 17.297 C 60.772 17.265 60.801 17.237 60.834 17.214 C 60.944 17.138 61.119 17.092 61.26 17.072 C 61.37 17.057 61.56 16.944 61.699 16.844 C 61.749 16.807 61.83 16.772 61.92 16.733 C 62.013 16.693 62.123 16.645 62.235 16.579 C 62.517 16.415 62.663 16.33 62.786 16.26 C 62.82 16.241 62.852 16.222 62.884 16.203 C 62.984 16.146 63.113 16.078 63.242 16.01 C 63.397 15.928 63.555 15.846 63.673 15.776 C 64.004 15.655 64.338 15.534 64.709 15.428 C 64.783 15.407 64.86 15.396 64.936 15.394 C 64.965 15.383 65.053 15.373 65.084 15.369 C 65.202 15.382 65.396 15.413 65.572 15.578 C 65.746 15.748 65.764 15.939 65.75 16.03 C 65.724 16.187 65.651 16.236 65.585 16.277 C 65.517 16.314 65.444 16.329 65.37 16.328 C 65.222 16.337 65.081 16.202 64.968 16.202 C 64.936 16.206 64.913 16.281 64.984 16.371 C 65.056 16.456 65.121 16.471 65.126 16.488 L 65.248 16.468 C 65.199 16.504 65.146 16.535 65.088 16.56 C 64.787 16.69 64.469 16.854 64.147 17.013 C 63.757 17.207 63.36 17.398 62.956 17.573 C 62.674 17.695 62.39 17.814 62.104 17.929 C 62.075 17.941 62.045 17.953 62.015 17.965 C 61.794 18.1 61.564 18.235 61.405 18.316 C 61.267 18.385 61.164 18.408 61.068 18.43 C 61.052 18.433 61.036 18.437 61.02 18.441 C 61.018 18.442 61.011 18.445 61.008 18.446 C 60.964 18.455 60.923 18.466 60.884 18.483 C 60.855 18.495 60.817 18.513 60.769 18.535 C 60.583 18.622 60.26 18.772 59.947 18.858 C 59.81 18.896 59.642 18.929 59.485 18.96 C 59.258 19.004 59.046 19.046 58.952 19.096 C 58.785 19.186 58.579 19.249 58.396 19.304 C 58.223 19.357 58.068 19.403 57.994 19.459 C 57.905 19.527 57.814 19.55 57.681 19.583 C 57.589 19.606 57.474 19.635 57.325 19.687 C 57.153 19.748 57.025 19.775 56.916 19.799 C 56.763 19.832 56.648 19.857 56.499 19.952 C 56.333 20.058 56.153 20.155 56.001 20.201 C 55.932 20.221 55.855 20.252 55.776 20.285 C 55.67 20.328 55.559 20.373 55.452 20.399 C 55.442 20.402 55.431 20.403 55.422 20.405 C 55.454 20.654 55.479 20.902 55.495 21.082 C 55.496 21.089 55.496 21.096 55.497 21.103 C 55.501 21.147 55.506 21.19 55.511 21.235 C 55.516 21.28 55.522 21.327 55.528 21.378 C 55.557 21.616 55.596 21.937 55.639 22.613 C 55.666 22.807 55.691 23.002 55.716 23.197 C 55.901 24.656 56.054 26.118 56.169 27.592 C 56.22 28.248 56.255 28.908 56.29 29.551 C 56.293 29.577 56.296 29.604 56.299 29.631 C 56.351 30.153 56.433 30.787 56.463 31.194 C 56.464 31.218 56.466 31.242 56.468 31.266 C 56.503 31.749 56.522 32.089 56.537 32.367 C 56.618 33.113 56.706 33.86 56.806 34.606 C 56.835 34.823 56.865 35.04 56.897 35.256 C 57.053 35.057 57.217 34.873 57.38 34.687 C 57.713 34.317 58.057 33.969 58.406 33.625 C 58.598 33.418 58.785 33.217 58.955 33.037 C 59.198 32.78 59.413 32.557 59.602 32.378 C 59.861 32.133 60.147 31.887 60.427 31.655 C 60.634 31.484 60.841 31.323 61.018 31.187 C 61.086 31.136 61.151 31.086 61.212 31.041 C 61.528 30.771 61.848 30.506 62.171 30.245 C 62.196 30.233 62.222 30.221 62.248 30.208 C 62.575 30.056 62.921 29.793 63.467 29.388 C 63.705 29.212 63.983 29.007 64.313 28.776 C 64.527 28.626 64.653 28.574 64.756 28.531 C 64.786 28.518 64.815 28.507 64.843 28.494 C 64.938 28.449 65.016 28.368 65.108 28.272 C 65.227 28.148 65.371 27.998 65.608 27.872 C 66.365 27.471 66.631 27.195 66.831 26.985 C 66.89 26.924 66.944 26.868 67.002 26.817 C 67.191 26.651 67.499 26.468 67.74 26.344 C 67.741 26.344 67.742 26.343 67.743 26.342 C 67.747 26.324 67.751 26.307 67.754 26.292 C 67.811 25.97 67.917 25.612 68.01 25.298 C 68.1 24.996 68.177 24.734 68.191 24.575 C 68.206 24.386 68.255 24.236 68.328 24.009 C 68.379 23.853 68.441 23.661 68.511 23.397 C 68.592 23.093 68.665 22.878 68.727 22.699 C 68.813 22.445 68.879 22.254 68.916 21.954 C 68.957 21.621 69.014 21.276 69.09 21.013 C 69.124 20.893 69.157 20.753 69.19 20.608 C 69.234 20.417 69.28 20.215 69.337 20.034 C 69.384 19.886 69.442 19.767 69.493 19.662 C 69.509 19.63 69.524 19.598 69.538 19.568 C 69.567 19.447 69.595 19.326 69.623 19.205 C 69.623 19.185 69.623 19.163 69.623 19.141 C 69.623 19.026 69.623 18.886 69.646 18.718 C 69.682 18.454 69.752 18.229 69.826 17.994 C 69.883 17.809 69.942 17.62 69.99 17.395 C 70.023 17.241 70.052 17.067 70.081 16.892 C 70.124 16.632 70.166 16.378 70.218 16.205 C 70.238 16.14 70.268 16.088 70.299 16.037 L 70.306 16.026 C 70.363 15.743 70.417 15.461 70.473 15.178 C 70.332 14.897 70.192 14.614 70.051 14.328 C 70.009 14.273 69.965 14.229 69.922 14.199 C 69.89 14.178 69.858 14.162 69.824 14.146 C 69.779 14.125 69.732 14.101 69.684 14.061 C 69.647 14.029 69.618 13.985 69.612 13.95 C 69.609 13.934 69.611 13.919 69.612 13.906 C 69.614 13.891 69.616 13.877 69.61 13.865 C 69.606 13.855 69.596 13.848 69.585 13.839 C 69.567 13.825 69.543 13.806 69.526 13.769 C 69.462 13.632 69.394 13.468 69.329 13.313 C 69.257 13.138 69.185 12.964 69.123 12.834 C 69.05 12.682 68.976 12.463 68.899 12.234 C 68.846 12.076 68.794 11.922 68.742 11.787 C 68.692 11.657 68.626 11.532 68.56 11.405 C 68.481 11.256 68.406 11.113 68.369 10.978 C 68.361 10.951 68.368 10.91 68.378 10.859 C 68.382 10.837 68.386 10.812 68.39 10.786 C 68.392 10.77 68.394 10.753 68.395 10.736 C 68.326 10.571 68.263 10.418 68.196 10.251 C 68.19 10.247 68.184 10.242 68.179 10.237 C 68.059 10.135 67.892 9.988 67.843 9.714 C 67.829 9.642 67.838 9.59 67.845 9.543 C 67.853 9.498 67.86 9.457 67.845 9.409 C 67.829 9.356 67.788 9.294 67.745 9.231 C 67.685 9.143 67.618 9.045 67.595 8.925 C 67.594 8.917 67.592 8.908 67.59 8.899 C 67.575 8.815 67.55 8.686 67.55 8.551 C 67.425 8.198 67.305 7.843 67.189 7.486 C 66.997 6.89 66.816 6.286 66.666 5.661 C 66.594 5.358 66.586 5.047 66.644 4.811 C 66.701 4.576 66.813 4.429 66.955 4.396 C 67.096 4.363 67.259 4.45 67.412 4.626 C 67.565 4.803 67.697 5.05 67.793 5.32 C 67.949 5.762 68.128 6.204 68.314 6.646 C 68.325 6.669 68.337 6.692 68.348 6.715 C 68.431 6.882 68.53 7.031 68.631 7.18 C 68.653 7.213 68.676 7.247 68.699 7.281 C 68.872 7.541 69.065 8.105 69.172 8.413 C 69.174 8.418 69.177 8.424 69.179 8.43 C 69.204 8.502 69.23 8.569 69.261 8.65 C 69.337 8.842 69.437 9.098 69.618 9.652 C 69.687 9.812 69.749 9.959 69.817 10.119 C 69.822 10.132 69.828 10.146 69.833 10.159 C 70.171 10.962 70.509 11.772 70.847 12.584 C 70.865 12.529 70.888 12.474 70.911 12.419 C 70.943 12.344 70.976 12.268 70.997 12.185 C 71.002 12.165 71.007 12.144 71.011 12.123 C 71.021 12.068 71.027 12.007 71.033 11.942 C 71.039 11.886 71.043 11.827 71.053 11.765 C 71.061 11.706 71.1 11.58 71.148 11.424 C 71.179 11.325 71.213 11.211 71.246 11.096 C 71.306 10.774 71.363 10.463 71.422 10.141 C 71.42 10.073 71.412 10.011 71.396 9.959 C 71.384 9.922 71.366 9.889 71.349 9.856 C 71.326 9.81 71.302 9.763 71.288 9.704 C 71.277 9.655 71.279 9.602 71.295 9.57 C 71.302 9.555 71.313 9.544 71.322 9.535 C 71.332 9.524 71.341 9.514 71.344 9.501 C 71.346 9.491 71.342 9.479 71.338 9.465 C 71.332 9.443 71.324 9.414 71.333 9.373 C 71.363 9.222 71.403 9.051 71.442 8.889 C 71.485 8.702 71.527 8.522 71.552 8.379 C 71.581 8.215 71.647 7.99 71.713 7.764 C 71.759 7.604 71.804 7.447 71.836 7.309 C 71.867 7.176 71.883 7.032 71.897 6.892 C 71.914 6.725 71.93 6.565 71.972 6.434 C 71.981 6.407 72.009 6.378 72.044 6.34 C 72.069 6.314 72.098 6.283 72.125 6.248 C 72.156 6.076 72.187 5.903 72.219 5.731 C 72.217 5.724 72.215 5.717 72.213 5.71 C 72.168 5.556 72.105 5.344 72.211 5.079 C 72.217 5.065 72.223 5.052 72.229 5.04 C 72.253 4.996 72.28 4.965 72.304 4.937 C 72.335 4.902 72.363 4.872 72.377 4.822 C 72.392 4.765 72.39 4.694 72.387 4.617 C 72.384 4.508 72.381 4.387 72.426 4.274 C 72.429 4.266 72.432 4.258 72.435 4.249 C 72.467 4.168 72.515 4.047 72.588 3.932 C 72.67 3.565 72.755 3.199 72.843 2.834 C 72.989 2.225 73.141 1.617 73.294 1.011 C 73.368 0.716 73.492 0.444 73.64 0.255 Z M 71.116 16.731 C 70.944 17.381 70.775 18.031 70.61 18.682 C 70.498 19.129 70.387 19.578 70.28 20.027 C 70.182 20.441 70.085 20.855 69.99 21.269 C 69.947 21.513 69.909 21.747 69.874 21.963 C 69.825 22.267 69.781 22.537 69.735 22.759 C 69.624 23.29 69.453 23.885 69.327 24.324 C 69.306 24.396 69.286 24.465 69.268 24.527 C 69.211 24.793 69.154 25.059 69.097 25.326 C 69.207 25.246 69.325 25.159 69.444 25.062 C 69.888 24.704 70.143 24.495 70.338 24.335 C 70.36 24.317 70.38 24.3 70.4 24.284 C 70.46 24.234 70.515 24.189 70.569 24.145 C 70.746 23.999 70.962 23.826 71.183 23.649 C 71.447 23.438 71.716 23.22 71.913 23.049 C 72.46 22.657 73.011 22.265 73.519 21.858 C 73.577 21.811 73.637 21.766 73.7 21.722 C 73.659 21.626 73.621 21.53 73.583 21.433 C 73.513 21.256 73.44 21.07 73.339 20.869 C 73.27 20.731 73.184 20.576 73.099 20.424 C 72.972 20.198 72.848 19.974 72.782 19.809 C 72.757 19.747 72.749 19.687 72.741 19.628 L 72.741 19.627 C 72.741 19.623 72.74 19.619 72.74 19.615 C 72.543 19.23 72.345 18.844 72.147 18.46 C 72.127 18.428 72.107 18.395 72.087 18.363 C 71.989 18.206 71.895 18.055 71.818 17.962 C 71.735 17.862 71.584 17.585 71.425 17.289 C 71.321 17.097 71.214 16.897 71.12 16.737 C 71.119 16.735 71.117 16.733 71.116 16.731 Z" fill="currentColor" fill-rule="evenodd"></path>
  <path d="M 13.767 49.516 C 13.834 49.481 13.93 49.493 14.037 49.551 C 14.144 49.609 14.253 49.708 14.34 49.829 C 14.428 49.95 14.489 50.085 14.511 50.206 C 14.534 50.327 14.516 50.425 14.463 50.48 C 14.356 50.589 14.25 50.698 14.14 50.804 C 14.007 50.932 13.869 51.055 13.721 51.165 C 13.618 51.241 13.512 51.315 13.405 51.386 C 13.394 51.393 13.382 51.401 13.371 51.408 C 13.305 51.502 13.238 51.594 13.183 51.649 C 13.138 51.694 13.09 51.705 13.048 51.715 C 13.019 51.721 12.994 51.727 12.975 51.743 C 12.965 51.751 12.952 51.763 12.936 51.778 C 12.871 51.839 12.761 51.942 12.629 51.992 C 12.571 52.014 12.496 52.029 12.424 52.043 C 12.392 52.049 12.359 52.056 12.33 52.062 C 12.328 52.063 12.322 52.068 12.319 52.069 C 12.258 52.081 12.208 52.095 12.188 52.119 C 12.136 52.18 12.053 52.214 11.98 52.245 C 11.91 52.274 11.849 52.3 11.833 52.342 C 11.813 52.392 11.775 52.404 11.719 52.421 C 11.68 52.433 11.633 52.448 11.576 52.48 C 11.511 52.518 11.456 52.532 11.409 52.544 C 11.344 52.56 11.293 52.573 11.256 52.643 C 11.213 52.721 11.161 52.79 11.101 52.819 C 11.074 52.832 11.047 52.852 11.02 52.875 C 10.983 52.904 10.945 52.935 10.901 52.951 C 10.864 52.964 10.822 52.959 10.786 52.954 C 10.774 52.953 10.763 52.951 10.753 52.951 C 10.73 52.969 10.706 52.987 10.683 53.005 C 10.682 53.012 10.681 53.019 10.68 53.027 C 10.674 53.064 10.668 53.11 10.646 53.148 C 10.611 53.207 10.556 53.228 10.499 53.25 C 10.455 53.266 10.409 53.284 10.368 53.321 C 10.341 53.347 10.315 53.383 10.288 53.418 C 10.25 53.47 10.211 53.521 10.171 53.539 C 10.155 53.545 10.133 53.54 10.112 53.533 C 10.11 53.533 10.109 53.532 10.107 53.532 C 10.033 53.607 9.96 53.684 9.888 53.762 C 9.884 53.771 9.88 53.78 9.875 53.79 C 9.854 53.835 9.834 53.879 9.831 53.92 C 9.827 53.966 9.779 54.029 9.729 54.095 C 9.696 54.139 9.663 54.183 9.639 54.226 C 9.626 54.25 9.595 54.251 9.564 54.252 C 9.534 54.252 9.504 54.254 9.486 54.274 C 9.477 54.284 9.47 54.299 9.464 54.315 C 9.458 54.329 9.452 54.345 9.443 54.358 C 9.435 54.37 9.405 54.381 9.366 54.396 C 9.342 54.406 9.315 54.416 9.288 54.429 C 9.235 54.487 9.183 54.545 9.13 54.602 C 9.128 54.625 9.131 54.651 9.139 54.68 C 9.146 54.7 9.155 54.723 9.164 54.746 C 9.178 54.777 9.192 54.81 9.198 54.84 C 9.203 54.862 9.199 54.877 9.187 54.876 C 9.182 54.875 9.174 54.871 9.168 54.867 C 9.161 54.863 9.154 54.859 9.152 54.861 C 9.15 54.863 9.152 54.869 9.154 54.877 C 9.157 54.888 9.16 54.903 9.153 54.91 C 9.126 54.935 9.092 54.958 9.058 54.98 C 9.02 55.006 8.983 55.03 8.959 55.056 C 8.939 55.077 8.903 55.094 8.864 55.109 L 8.876 55.098 C 8.862 55.105 8.846 55.111 8.831 55.117 C 8.791 55.132 8.752 55.148 8.722 55.166 C 8.693 55.184 8.673 55.216 8.655 55.247 C 8.633 55.284 8.611 55.321 8.574 55.329 C 8.566 55.33 8.545 55.318 8.52 55.303 C 8.501 55.293 8.479 55.281 8.458 55.271 C 8.426 55.299 8.394 55.327 8.36 55.354 C 8.361 55.357 8.362 55.361 8.362 55.364 L 8.377 55.426 C 8.389 55.489 8.387 55.55 8.32 55.549 C 8.297 55.549 8.271 55.535 8.248 55.522 C 8.225 55.509 8.205 55.498 8.193 55.503 C 8.178 55.508 8.175 55.531 8.171 55.555 C 8.167 55.589 8.16 55.628 8.124 55.629 C 8.121 55.629 8.118 55.629 8.116 55.629 C 8.089 55.629 8.048 55.631 7.993 55.612 C 7.915 55.661 7.834 55.708 7.752 55.755 C 7.615 55.832 7.474 55.905 7.324 55.979 C 7.252 56.014 7.146 56.006 7.036 55.948 C 6.925 55.89 6.825 55.784 6.75 55.658 C 6.676 55.531 6.623 55.397 6.596 55.282 C 6.569 55.167 6.575 55.077 6.617 55.024 C 6.686 54.939 6.758 54.846 6.831 54.756 C 6.834 54.749 6.836 54.743 6.839 54.737 C 6.86 54.693 6.866 54.634 6.873 54.575 C 6.874 54.561 6.875 54.548 6.877 54.535 C 6.888 54.433 7.015 54.363 7.085 54.324 C 7.086 54.323 7.087 54.322 7.088 54.321 C 7.105 54.312 7.119 54.302 7.135 54.289 C 7.175 54.258 7.227 54.217 7.362 54.159 C 7.392 54.131 7.422 54.104 7.453 54.077 C 7.56 53.984 7.67 53.895 7.783 53.81 C 7.785 53.807 7.793 53.802 7.795 53.8 C 8.045 53.617 8.309 53.453 8.577 53.295 C 8.581 53.291 8.586 53.287 8.59 53.283 C 8.673 53.206 8.778 53.11 8.862 53.074 C 8.97 53.03 9.048 53.006 9.113 52.988 C 9.428 52.808 9.742 52.628 10.04 52.428 C 10.133 52.365 10.225 52.3 10.315 52.233 C 10.398 52.171 10.48 52.108 10.561 52.043 C 10.601 51.995 10.636 51.947 10.67 51.901 C 10.717 51.838 10.759 51.781 10.8 51.744 C 10.899 51.652 11.036 51.587 11.139 51.538 C 11.156 51.531 11.172 51.523 11.186 51.516 C 11.254 51.457 11.321 51.398 11.388 51.339 C 11.397 51.34 11.405 51.342 11.414 51.343 C 11.519 51.365 11.596 51.312 11.717 51.229 C 11.73 51.22 11.744 51.21 11.759 51.201 L 11.75 51.207 C 11.79 51.178 11.837 51.146 11.89 51.113 C 11.937 51.085 11.978 51.094 12.011 51.101 C 12.02 51.104 12.029 51.105 12.038 51.106 C 12.067 51.109 12.074 51.079 12.082 51.042 C 12.093 50.996 12.106 50.939 12.171 50.934 C 12.38 50.919 12.401 50.811 12.417 50.73 C 12.422 50.706 12.426 50.684 12.434 50.668 C 12.462 50.615 12.538 50.592 12.605 50.588 C 12.658 50.585 12.715 50.507 12.749 50.437 C 12.762 50.41 12.79 50.389 12.823 50.364 C 12.857 50.338 12.897 50.308 12.931 50.264 C 13.016 50.152 13.062 50.094 13.099 50.048 C 13.11 50.034 13.12 50.022 13.13 50.009 C 13.161 49.97 13.202 49.925 13.244 49.881 C 13.295 49.827 13.346 49.772 13.38 49.724 C 13.507 49.653 13.637 49.584 13.767 49.516 Z" fill="currentColor" fill-rule="nonzero"></path>
  <path d="M 88.397 21.83 C 88.479 21.739 88.673 21.724 88.784 21.715 C 88.786 21.715 88.788 21.715 88.79 21.715 C 88.814 21.713 88.838 21.709 88.865 21.704 C 88.932 21.691 89.019 21.675 89.215 21.677 C 89.267 21.663 89.32 21.65 89.375 21.638 C 89.952 21.506 90.547 21.432 91.139 21.371 C 91.146 21.369 91.154 21.367 91.161 21.365 C 91.306 21.325 91.482 21.277 91.603 21.276 C 91.753 21.276 91.856 21.284 91.943 21.292 C 92.415 21.244 92.886 21.191 93.35 21.109 C 93.496 21.083 93.64 21.055 93.785 21.023 C 93.901 20.997 94.017 20.969 94.134 20.94 C 94.138 20.939 94.152 20.937 94.157 20.936 C 94.173 20.933 94.19 20.929 94.206 20.926 C 94.283 20.897 94.352 20.867 94.419 20.838 C 94.512 20.799 94.596 20.763 94.665 20.744 C 94.835 20.699 95.032 20.692 95.181 20.687 C 95.205 20.686 95.227 20.686 95.248 20.685 C 95.362 20.656 95.475 20.626 95.588 20.597 C 95.596 20.601 95.605 20.607 95.614 20.611 C 95.723 20.672 95.845 20.651 96.033 20.618 C 96.116 20.604 96.211 20.587 96.324 20.574 C 96.397 20.566 96.439 20.59 96.474 20.61 C 96.484 20.616 96.494 20.621 96.503 20.625 C 96.535 20.639 96.562 20.614 96.594 20.584 C 96.636 20.544 96.687 20.496 96.766 20.518 C 97.02 20.587 97.113 20.494 97.182 20.425 C 97.202 20.405 97.22 20.386 97.24 20.374 C 97.305 20.335 97.408 20.344 97.488 20.367 C 97.552 20.385 97.665 20.335 97.747 20.282 C 97.779 20.262 97.824 20.253 97.877 20.243 C 97.932 20.232 97.996 20.219 98.061 20.19 C 98.164 20.144 98.237 20.112 98.294 20.087 C 98.296 20.086 98.305 20.085 98.308 20.084 C 98.345 20.069 98.375 20.057 98.404 20.047 C 98.425 20.038 98.446 20.031 98.466 20.023 C 98.529 19.999 98.609 19.974 98.689 19.951 C 98.785 19.922 98.881 19.894 98.952 19.865 C 99.146 19.855 99.337 19.849 99.527 19.841 C 99.625 19.837 99.729 19.888 99.815 19.986 C 99.901 20.084 99.963 20.221 99.988 20.369 C 100.013 20.517 99.998 20.667 99.946 20.789 C 99.895 20.91 99.811 20.993 99.714 21.021 C 99.518 21.077 99.321 21.132 99.127 21.181 C 98.922 21.233 98.724 21.279 98.528 21.318 L 98.543 21.316 C 98.51 21.323 98.478 21.33 98.445 21.337 C 98.275 21.372 98.103 21.401 97.932 21.427 C 97.914 21.43 97.896 21.433 97.879 21.435 C 97.743 21.498 97.606 21.557 97.508 21.587 C 97.426 21.611 97.363 21.602 97.309 21.594 C 97.272 21.589 97.238 21.584 97.207 21.591 C 97.19 21.595 97.168 21.601 97.14 21.609 C 97.028 21.639 96.836 21.691 96.654 21.685 C 96.572 21.683 96.476 21.667 96.385 21.651 C 96.254 21.63 96.132 21.609 96.076 21.631 C 95.976 21.67 95.856 21.671 95.749 21.672 C 95.649 21.674 95.558 21.675 95.514 21.708 C 95.461 21.747 95.407 21.744 95.331 21.738 C 95.277 21.734 95.21 21.73 95.124 21.738 C 95.021 21.748 94.95 21.739 94.886 21.731 C 94.799 21.721 94.731 21.713 94.643 21.763 C 94.544 21.819 94.439 21.862 94.35 21.865 C 94.339 21.865 94.327 21.866 94.316 21.867 L 94.146 21.906 C 94.115 21.912 94.083 21.916 94.052 21.916 C 94.002 21.916 93.956 21.896 93.915 21.878 C 93.902 21.873 93.889 21.868 93.877 21.864 C 93.838 21.873 93.8 21.882 93.761 21.892 C 93.756 21.898 93.75 21.904 93.744 21.911 C 93.716 21.945 93.68 21.986 93.632 22.014 C 93.555 22.058 93.476 22.058 93.396 22.058 C 93.333 22.059 93.269 22.059 93.198 22.08 C 93.15 22.094 93.096 22.118 93.044 22.142 C 92.966 22.177 92.891 22.211 92.831 22.214 C 92.809 22.214 92.787 22.201 92.765 22.187 C 92.764 22.186 92.762 22.185 92.76 22.184 C 92.626 22.228 92.494 22.273 92.36 22.32 C 92.349 22.327 92.338 22.334 92.327 22.341 C 92.274 22.376 92.225 22.41 92.193 22.448 C 92.16 22.49 92.063 22.532 91.964 22.575 C 91.899 22.603 91.828 22.633 91.774 22.664 C 91.742 22.682 91.706 22.671 91.669 22.659 C 91.635 22.648 91.599 22.638 91.565 22.65 C 91.548 22.656 91.53 22.668 91.512 22.681 C 91.496 22.692 91.478 22.704 91.46 22.713 C 91.443 22.721 91.4 22.72 91.346 22.719 C 91.314 22.718 91.273 22.718 91.234 22.719 C 91.134 22.754 91.039 22.787 90.937 22.82 C 90.92 22.841 90.906 22.866 90.897 22.897 C 90.891 22.918 90.888 22.943 90.884 22.969 C 90.878 23.004 90.873 23.04 90.861 23.07 C 90.852 23.094 90.838 23.106 90.825 23.1 C 90.819 23.097 90.814 23.09 90.809 23.084 C 90.803 23.078 90.798 23.071 90.793 23.072 C 90.79 23.074 90.788 23.08 90.785 23.087 C 90.781 23.099 90.775 23.115 90.763 23.119 C 90.714 23.132 90.658 23.139 90.604 23.147 C 90.545 23.155 90.485 23.164 90.439 23.179 C 90.388 23.195 90.312 23.191 90.232 23.187 C 90.177 23.185 90.122 23.182 90.077 23.186 C 90.033 23.19 89.989 23.212 89.947 23.233 C 89.897 23.258 89.85 23.283 89.804 23.274 C 89.795 23.272 89.779 23.253 89.759 23.228 C 89.745 23.211 89.729 23.19 89.711 23.172 C 89.656 23.185 89.601 23.197 89.547 23.207 C 89.546 23.211 89.545 23.214 89.544 23.218 C 89.513 23.299 89.472 23.41 89.375 23.372 C 89.351 23.362 89.329 23.338 89.311 23.317 C 89.294 23.296 89.278 23.277 89.261 23.276 C 89.241 23.275 89.223 23.295 89.203 23.316 C 89.176 23.346 89.146 23.379 89.103 23.364 C 89.1 23.363 89.096 23.362 89.093 23.361 C 89.062 23.35 89.017 23.335 88.968 23.294 C 88.848 23.308 88.727 23.319 88.608 23.328 C 88.406 23.344 88.207 23.357 88.003 23.37 C 87.907 23.375 87.8 23.329 87.708 23.236 C 87.618 23.144 87.547 23.013 87.518 22.869 C 87.482 22.726 87.491 22.577 87.534 22.453 C 87.577 22.33 87.654 22.241 87.744 22.204 C 87.893 22.143 88.042 22.082 88.191 22.022 C 88.199 22.018 88.206 22.013 88.214 22.008 C 88.271 21.974 88.317 21.921 88.364 21.867 C 88.375 21.855 88.385 21.843 88.397 21.83 Z" fill="currentColor" fill-rule="nonzero"></path>
  <path d="M 0.208 37.681 C 0.32 37.583 0.464 37.531 0.606 37.532 C 0.839 37.535 1.07 37.536 1.302 37.54 C 1.314 37.538 1.327 37.537 1.339 37.536 C 1.431 37.526 1.518 37.495 1.606 37.463 C 1.626 37.456 1.646 37.449 1.667 37.442 C 1.819 37.389 2.097 37.451 2.249 37.484 C 2.251 37.485 2.254 37.485 2.257 37.486 C 2.292 37.494 2.328 37.499 2.368 37.504 C 2.465 37.518 2.595 37.537 2.861 37.612 C 2.941 37.619 3.019 37.627 3.1 37.635 C 3.954 37.729 4.802 37.873 5.645 38.003 C 5.656 38.003 5.667 38.004 5.677 38.004 C 5.891 38.012 6.154 38.019 6.318 38.052 C 6.526 38.095 6.667 38.131 6.782 38.161 C 6.835 38.167 6.888 38.172 6.94 38.178 L 6.906 38.178 C 7.543 38.205 8.17 38.224 8.806 38.214 C 9.018 38.21 9.235 38.203 9.449 38.192 C 9.646 38.182 9.845 38.169 10.041 38.154 C 10.156 38.133 10.263 38.109 10.364 38.086 C 10.506 38.054 10.631 38.025 10.735 38.012 C 10.986 37.98 11.273 37.987 11.486 37.992 C 11.521 37.992 11.554 37.993 11.585 37.994 C 11.751 37.973 11.921 37.95 12.087 37.927 C 12.099 37.932 12.111 37.937 12.123 37.943 C 12.271 38.01 12.449 37.996 12.727 37.972 C 12.847 37.962 12.989 37.949 13.154 37.941 C 13.261 37.936 13.319 37.962 13.366 37.984 C 13.379 37.99 13.392 37.996 13.405 38 C 13.449 38.016 13.494 37.991 13.545 37.962 C 13.611 37.924 13.691 37.879 13.804 37.905 C 13.985 37.945 14.113 37.943 14.21 37.922 L 14.192 37.924 C 14.284 37.9 14.346 37.859 14.4 37.823 C 14.43 37.802 14.459 37.783 14.489 37.77 C 14.587 37.729 14.734 37.735 14.848 37.755 C 14.939 37.771 15.108 37.716 15.234 37.659 C 15.282 37.637 15.349 37.626 15.428 37.613 C 15.51 37.6 15.605 37.584 15.704 37.552 C 15.954 37.471 16.087 37.428 16.195 37.395 C 16.225 37.385 16.254 37.377 16.282 37.368 C 16.372 37.339 16.484 37.309 16.598 37.278 C 16.734 37.242 16.872 37.204 16.976 37.169 C 17.256 37.139 17.537 37.113 17.818 37.087 C 17.963 37.074 18.111 37.116 18.23 37.208 C 18.35 37.3 18.431 37.433 18.456 37.581 C 18.481 37.73 18.449 37.883 18.367 38.01 C 18.285 38.137 18.159 38.228 18.018 38.265 C 17.735 38.339 17.451 38.413 17.166 38.482 C 16.819 38.566 16.47 38.642 16.118 38.7 C 15.871 38.741 15.624 38.778 15.375 38.81 C 15.349 38.814 15.324 38.817 15.298 38.82 C 15.095 38.89 14.891 38.954 14.744 38.987 C 14.623 39.014 14.53 39.007 14.452 39 C 14.406 38.996 14.365 38.993 14.325 38.996 C 14.32 38.997 14.303 38.999 14.297 38.999 C 14.289 39 14.281 39 14.273 39.001 C 14.249 39.004 14.215 39.01 14.174 39.016 C 14.008 39.041 13.725 39.084 13.462 39.07 C 13.344 39.064 13.208 39.044 13.077 39.024 C 12.891 38.996 12.715 38.97 12.63 38.989 C 12.479 39.023 12.305 39.018 12.149 39.013 C 12.002 39.008 11.872 39.004 11.8 39.034 C 11.713 39.07 11.641 39.064 11.527 39.053 C 11.451 39.046 11.352 39.037 11.226 39.039 C 11.076 39.042 10.973 39.027 10.881 39.015 C 10.757 38.997 10.657 38.985 10.522 39.028 C 10.367 39.075 10.207 39.109 10.077 39.104 C 10.019 39.102 9.952 39.107 9.882 39.112 C 9.79 39.119 9.694 39.125 9.604 39.116 C 9.53 39.109 9.47 39.083 9.415 39.06 C 9.398 39.052 9.381 39.046 9.365 39.04 C 9.307 39.043 9.249 39.046 9.192 39.05 C 9.183 39.055 9.173 39.061 9.163 39.067 C 9.113 39.096 9.049 39.132 8.971 39.153 C 8.851 39.184 8.736 39.173 8.622 39.161 C 8.533 39.151 8.438 39.142 8.331 39.152 C 8.259 39.158 8.176 39.174 8.094 39.189 C 7.97 39.212 7.853 39.234 7.767 39.226 C 7.735 39.224 7.707 39.207 7.679 39.189 C 7.677 39.188 7.675 39.187 7.673 39.185 C 7.473 39.208 7.266 39.231 7.062 39.255 C 7.045 39.26 7.027 39.266 7.009 39.271 C 6.988 39.277 6.967 39.284 6.946 39.29 C 6.94 39.29 6.923 39.29 6.917 39.29 C 6.853 39.306 6.791 39.322 6.748 39.344 C 6.687 39.376 6.532 39.391 6.37 39.404 C 6.263 39.412 6.154 39.42 6.064 39.434 C 6.012 39.442 5.963 39.42 5.914 39.398 C 5.868 39.377 5.821 39.355 5.767 39.356 C 5.741 39.357 5.712 39.363 5.681 39.369 C 5.654 39.375 5.624 39.381 5.594 39.383 C 5.566 39.386 5.506 39.371 5.428 39.352 C 5.38 39.341 5.326 39.328 5.269 39.316 C 5.115 39.316 4.961 39.314 4.807 39.311 C 4.774 39.325 4.745 39.345 4.721 39.37 C 4.703 39.388 4.688 39.411 4.672 39.434 C 4.651 39.465 4.628 39.497 4.599 39.522 C 4.577 39.541 4.551 39.547 4.536 39.537 C 4.528 39.532 4.523 39.524 4.519 39.516 C 4.513 39.508 4.508 39.5 4.502 39.5 C 4.497 39.5 4.491 39.505 4.484 39.511 C 4.473 39.521 4.459 39.534 4.439 39.533 C 4.366 39.528 4.286 39.516 4.204 39.504 C 4.116 39.49 4.028 39.477 3.958 39.474 C 3.88 39.471 3.769 39.438 3.661 39.406 C 3.584 39.384 3.508 39.361 3.442 39.348 C 3.378 39.336 3.307 39.34 3.241 39.345 C 3.161 39.35 3.082 39.355 3.021 39.329 C 3.008 39.324 2.995 39.299 2.977 39.269 C 2.965 39.247 2.951 39.222 2.934 39.199 C 2.851 39.19 2.771 39.18 2.688 39.169 C 2.685 39.172 2.682 39.175 2.678 39.178 L 2.616 39.228 C 2.55 39.277 2.47 39.313 2.377 39.258 C 2.345 39.239 2.328 39.209 2.312 39.182 C 2.297 39.155 2.283 39.131 2.259 39.124 C 2.233 39.116 2.199 39.127 2.162 39.139 C 2.11 39.156 2.052 39.176 2 39.146 C 1.997 39.144 1.993 39.141 1.989 39.139 C 1.951 39.117 1.894 39.085 1.841 39.028 C 1.669 38.994 1.497 38.958 1.323 38.919 C 1.037 38.856 0.751 38.788 0.464 38.719 C 0.326 38.686 0.198 38.6 0.112 38.478 C 0.026 38.355 -0.014 38.206 0.004 38.059 C 0.022 37.913 0.096 37.779 0.208 37.681 Z" fill="currentColor" fill-rule="nonzero"></path>
  <path d="M 98.315 4.387 C 98.406 4.331 98.527 4.318 98.657 4.354 C 98.786 4.39 98.912 4.473 99.006 4.589 C 99.099 4.705 99.156 4.846 99.162 4.985 C 99.169 5.123 99.121 5.249 99.034 5.332 C 98.86 5.5 98.683 5.661 98.504 5.814 C 98.286 6 98.065 6.175 97.832 6.336 C 97.67 6.449 97.506 6.557 97.341 6.663 C 97.324 6.674 97.306 6.685 97.289 6.696 C 97.174 6.819 97.056 6.94 96.966 7.016 C 96.906 7.066 96.848 7.091 96.795 7.109 C 96.785 7.113 96.775 7.116 96.765 7.12 C 96.725 7.133 96.689 7.145 96.659 7.167 C 96.643 7.178 96.621 7.196 96.596 7.216 C 96.494 7.299 96.315 7.442 96.126 7.526 C 96.041 7.564 95.936 7.597 95.836 7.628 C 95.691 7.673 95.56 7.713 95.508 7.762 C 95.422 7.845 95.296 7.908 95.188 7.961 C 95.083 8.012 94.992 8.057 94.958 8.11 C 94.917 8.172 94.861 8.196 94.779 8.228 C 94.722 8.251 94.652 8.28 94.565 8.33 C 94.465 8.389 94.385 8.417 94.317 8.441 C 94.222 8.474 94.15 8.499 94.077 8.59 C 93.996 8.69 93.902 8.781 93.812 8.827 C 93.77 8.848 93.727 8.878 93.682 8.909 C 93.623 8.951 93.561 8.995 93.496 9.021 C 93.442 9.043 93.387 9.045 93.338 9.047 C 93.323 9.047 93.308 9.048 93.294 9.049 C 93.257 9.074 93.219 9.1 93.181 9.126 C 93.178 9.134 93.174 9.142 93.17 9.151 C 93.151 9.196 93.127 9.252 93.084 9.3 C 93.016 9.376 92.936 9.41 92.851 9.446 C 92.785 9.473 92.716 9.502 92.649 9.553 C 92.603 9.587 92.555 9.634 92.507 9.679 C 92.436 9.747 92.366 9.814 92.305 9.841 C 92.283 9.851 92.255 9.848 92.227 9.844 C 92.226 9.844 92.223 9.843 92.221 9.843 C 92.096 9.943 91.969 10.045 91.844 10.148 C 91.835 10.16 91.825 10.172 91.816 10.183 C 91.771 10.239 91.728 10.294 91.709 10.343 C 91.687 10.398 91.6 10.479 91.507 10.564 C 91.446 10.621 91.383 10.679 91.337 10.732 C 91.309 10.763 91.267 10.769 91.224 10.774 C 91.184 10.779 91.143 10.784 91.111 10.81 C 91.095 10.823 91.081 10.842 91.066 10.862 C 91.052 10.88 91.038 10.898 91.021 10.915 C 91.006 10.931 90.96 10.948 90.903 10.971 C 90.867 10.984 90.826 11.001 90.784 11.02 C 90.691 11.095 90.597 11.171 90.504 11.245 C 90.492 11.273 90.486 11.303 90.487 11.335 C 90.487 11.358 90.491 11.384 90.495 11.41 C 90.5 11.446 90.506 11.483 90.503 11.517 C 90.501 11.544 90.489 11.562 90.474 11.561 C 90.467 11.561 90.459 11.557 90.451 11.554 C 90.443 11.55 90.436 11.546 90.431 11.549 C 90.428 11.551 90.428 11.558 90.428 11.566 C 90.428 11.58 90.427 11.597 90.415 11.606 C 90.369 11.638 90.311 11.671 90.257 11.702 C 90.197 11.735 90.136 11.77 90.093 11.804 C 90.045 11.841 89.96 11.872 89.876 11.902 C 89.854 11.91 89.831 11.918 89.809 11.926 C 89.774 11.94 89.741 11.954 89.712 11.969 C 89.667 11.992 89.63 12.03 89.591 12.069 C 89.546 12.115 89.506 12.157 89.452 12.171 C 89.442 12.173 89.418 12.162 89.39 12.147 C 89.37 12.136 89.346 12.123 89.322 12.114 C 89.271 12.148 89.213 12.185 89.16 12.218 C 89.16 12.222 89.16 12.226 89.159 12.23 L 89.154 12.301 C 89.144 12.374 89.118 12.445 89.03 12.45 C 89.001 12.452 88.972 12.438 88.946 12.425 C 88.921 12.412 88.899 12.4 88.881 12.406 C 88.86 12.414 88.846 12.441 88.832 12.47 C 88.812 12.511 88.791 12.556 88.741 12.56 C 88.738 12.56 88.734 12.561 88.73 12.561 C 88.695 12.564 88.643 12.568 88.577 12.551 C 88.455 12.616 88.333 12.678 88.209 12.74 C 88.002 12.842 87.793 12.941 87.586 13.04 C 87.485 13.088 87.358 13.09 87.233 13.041 C 87.108 12.992 86.994 12.897 86.915 12.774 C 86.835 12.651 86.794 12.507 86.799 12.37 C 86.805 12.234 86.858 12.115 86.942 12.04 C 87.08 11.916 87.218 11.794 87.356 11.673 C 87.362 11.666 87.369 11.658 87.376 11.65 C 87.424 11.594 87.456 11.522 87.489 11.451 C 87.497 11.434 87.504 11.418 87.511 11.402 C 87.57 11.279 87.771 11.18 87.882 11.125 C 87.884 11.124 87.887 11.123 87.888 11.122 C 87.914 11.11 87.937 11.095 87.965 11.078 C 88.032 11.037 88.118 10.984 88.324 10.901 C 88.374 10.866 88.43 10.828 88.48 10.795 C 88.624 10.7 88.764 10.612 88.912 10.522 C 89.347 10.258 89.802 10.013 90.254 9.776 C 90.261 9.771 90.268 9.766 90.275 9.761 C 90.414 9.66 90.586 9.536 90.71 9.485 C 90.87 9.418 90.981 9.381 91.075 9.351 C 91.555 9.1 92.034 8.843 92.495 8.562 C 92.64 8.474 92.783 8.383 92.924 8.289 C 93.054 8.203 93.184 8.114 93.311 8.025 C 93.378 7.962 93.441 7.898 93.498 7.84 C 93.579 7.758 93.651 7.684 93.716 7.633 C 93.873 7.508 94.076 7.404 94.226 7.328 C 94.25 7.316 94.274 7.303 94.295 7.292 C 94.401 7.21 94.506 7.127 94.612 7.045 C 94.622 7.045 94.633 7.045 94.644 7.045 C 94.781 7.047 94.896 6.969 95.079 6.845 C 95.157 6.791 95.251 6.727 95.362 6.66 C 95.433 6.616 95.487 6.618 95.53 6.619 C 95.542 6.62 95.555 6.62 95.566 6.619 C 95.604 6.616 95.621 6.58 95.644 6.535 C 95.673 6.477 95.706 6.409 95.796 6.39 C 96.04 6.337 96.122 6.236 96.167 6.148 C 96.176 6.13 96.184 6.113 96.191 6.098 C 96.205 6.068 96.217 6.042 96.233 6.021 C 96.283 5.955 96.397 5.91 96.487 5.893 C 96.562 5.877 96.659 5.776 96.726 5.685 C 96.75 5.652 96.795 5.62 96.847 5.584 C 96.899 5.548 96.964 5.503 97.02 5.446 C 97.167 5.297 97.244 5.219 97.307 5.157 C 97.324 5.139 97.341 5.122 97.358 5.105 C 97.411 5.053 97.478 4.992 97.546 4.931 C 97.627 4.858 97.71 4.781 97.766 4.718 C 97.951 4.607 98.137 4.498 98.315 4.387 Z" fill="currentColor" fill-rule="nonzero"></path>
</svg>